<?xml version="1.0" standalone="no"?>
<!DOCTYPE svg PUBLIC "-//W3C//DTD SVG 20010904//EN"
 "http://www.w3.org/TR/2001/REC-SVG-20010904/DTD/svg10.dtd">
<svg version="1.0" xmlns="http://www.w3.org/2000/svg"
 width="200.000000pt" height="200.000000pt" viewBox="0 0 200.000000 200.000000"
 preserveAspectRatio="xMidYMid meet">
<metadata>
Created by potrace 1.14, written by Peter Selinger 2001-2017
</metadata>
<g transform="translate(0.000000,200.000000) scale(0.100000,-0.100000)"
fill="#000000" stroke="none">
<path d="M421 1773 c-45 -23 -104 -115 -138 -217 -24 -73 -26 -95 -26 -231 0
-120 4 -170 22 -250 63 -275 189 -516 360 -685 244 -241 482 -240 726 5 106
106 167 195 240 348 99 210 138 372 138 582 0 136 -2 158 -26 231 -34 104 -93
195 -140 217 -56 27 -99 21 -276 -40 l-166 -58 -135 0 -135 0 -167 58 c-177
60 -222 67 -277 40z m247 -88 c68 -25 162 -52 211 -61 l88 -16 7 -76 c3 -41 6
-151 6 -244 0 -147 -3 -184 -26 -281 -20 -87 -24 -125 -19 -172 3 -33 7 -80 8
-105 3 -56 11 -68 53 -86 76 -32 223 -10 317 47 26 16 47 25 47 20 0 -16 -95
-97 -140 -119 -54 -26 -133 -42 -206 -42 -46 0 -56 -4 -70 -25 -15 -23 -15
-27 5 -65 16 -31 21 -59 21 -117 l0 -76 -42 7 c-102 17 -248 129 -359 278 -65
87 -156 267 -193 378 -104 317 -83 644 50 777 37 37 99 31 242 -22z m737 -355
c11 -4 -9 -5 -46 -3 -80 7 -127 -14 -187 -82 -27 -31 -45 -43 -56 -39 -22 9
-7 34 50 80 69 57 160 74 239 44z m-30 -81 c40 -11 105 -53 105 -68 0 -5 -17
-11 -38 -13 -20 -3 -83 -26 -138 -52 -118 -54 -144 -58 -144 -21 0 31 31 93
58 118 19 18 84 46 107 47 6 0 28 -5 50 -11z"/>
<path d="M581 1334 c-47 -17 -94 -44 -88 -51 2 -2 24 6 48 17 52 23 135 26
182 6 34 -14 83 -56 110 -95 13 -20 19 -22 32 -11 8 7 15 16 15 20 0 19 -75
83 -123 106 -60 27 -113 30 -176 8z"/>
<path d="M597 1250 c-36 -11 -97 -57 -97 -74 0 -8 13 -13 30 -14 17 0 76 -22
131 -47 55 -26 114 -48 132 -49 31 -1 32 0 31 37 -2 50 -48 115 -99 138 -43
20 -83 22 -128 9z"/>
</g>
</svg>
